<svg width="173" height="37" viewBox="0 0 173 37" fill="none" xmlns="http://www.w3.org/2000/svg">
<g clip-path="url(#clip0_19_4)">
<path d="M31.73 2.79L26.35 7.76L7.3 24.77L5.48 19.28L19.6 7.06L1.81 5.49L0 0L31.73 2.79Z" fill="#EE6C4D"/>
<path d="M33.38 4.32V36.4H27.31L27.45 16.57L14.38 28.76L9.06 26.43L27.39 9.88L33.38 4.32Z" fill="#EE6C4D"/>
<path d="M53.4 27C53.7522 27.8 53.9294 28.666 53.92 29.54C53.926 30.6359 53.6468 31.7145 53.11 32.67C52.5994 33.6303 51.8394 34.4352 50.91 35C50.0062 35.5502 48.9682 35.8409 47.91 35.84H38.51V15.51H47.45C48.4535 15.5014 49.4386 15.7789 50.29 16.31C51.1539 16.8318 51.8672 17.5693 52.36 18.45C52.8667 19.3287 53.1323 20.3257 53.13 21.34C53.1265 22.6577 52.7026 23.9399 51.92 25C52.5477 25.5559 53.0518 26.2372 53.4 27ZM42.84 19.66V23.4H47.43C47.6521 23.3979 47.8713 23.3487 48.073 23.2556C48.2747 23.1625 48.4543 23.0277 48.6 22.86C48.9382 22.505 49.1217 22.0302 49.11 21.54C49.1182 21.2955 49.0773 21.0518 48.9897 20.8233C48.9021 20.5949 48.7696 20.3863 48.6 20.21C48.4521 20.0465 48.2715 19.9157 48.07 19.8262C47.8685 19.7366 47.6505 19.6902 47.43 19.69L42.84 19.66ZM47.84 31.66C48.106 31.6679 48.37 31.6121 48.61 31.4973C48.8501 31.3825 49.0592 31.212 49.22 31C49.5885 30.5881 49.7884 30.0526 49.78 29.5C49.7864 28.9477 49.5868 28.4129 49.22 28C49.0622 27.7985 48.8602 27.6361 48.6296 27.5251C48.3989 27.4141 48.1459 27.3576 47.89 27.36H42.89V31.65L47.84 31.66Z" fill="#181D26"/>
<path d="M63.06 23.66L67.58 15.51H72.58L65.23 28.76V35.81H60.88V28.81L53.6 15.51H58.53L63.06 23.66Z" fill="#181D26"/>
<path d="M89.42 15.51V19.63H84.06V35.81H79.68V19.63H74.34V15.51H89.42Z" fill="#181D26"/>
<path d="M96.41 27.54V31.66H104.62V35.81H92V15.51H104.44V19.63H96.41V23.4H103.75V27.54H96.41Z" fill="#181D26"/>
<path d="M112.1 34.8C110.526 33.8793 109.215 32.5711 108.29 31C107.366 29.4045 106.88 27.5935 106.88 25.75C106.88 23.9065 107.366 22.0955 108.29 20.5C109.205 18.9163 110.519 17.5994 112.1 16.68C113.698 15.7623 115.508 15.2794 117.35 15.2794C119.192 15.2794 121.002 15.7623 122.6 16.68C124.186 17.5961 125.504 18.9136 126.42 20.5C127.338 22.0975 127.821 23.9077 127.821 25.75C127.821 27.5923 127.338 29.4025 126.42 31C125.499 32.585 124.183 33.9045 122.6 34.83C121.006 35.7595 119.195 36.2492 117.35 36.2492C115.505 36.2492 113.694 35.7595 112.1 34.83V34.8ZM120.41 31C121.334 30.4591 122.105 29.6916 122.65 28.77C123.193 27.8419 123.476 26.785 123.47 25.71C123.472 24.6544 123.189 23.6179 122.65 22.71C122.105 21.7912 121.334 21.0271 120.41 20.49C119.482 19.9475 118.425 19.6643 117.35 19.67C116.549 19.666 115.755 19.8208 115.015 20.1255C114.274 20.4301 113.601 20.8786 113.035 21.4449C112.469 22.0112 112.02 22.6841 111.715 23.4248C111.411 24.1654 111.256 24.9591 111.26 25.76C111.257 26.836 111.544 27.8929 112.09 28.82C112.634 29.7225 113.398 30.4724 114.31 31C115.217 31.5421 116.253 31.8288 117.31 31.83C118.4 31.8399 119.471 31.553 120.41 31Z" fill="#181D26"/>
<path d="M132.09 34.85C130.645 34.034 129.512 32.7605 128.87 31.23L133.07 29.08C133.438 29.9574 134.066 30.7009 134.87 31.21C135.784 31.7232 136.823 31.9692 137.87 31.92C138.479 31.9314 139.083 31.8226 139.65 31.6C140.115 31.4341 140.536 31.1639 140.88 30.81C141.14 30.5592 141.297 30.2204 141.32 29.86C141.32 29.671 141.28 29.4842 141.202 29.3119C141.124 29.1395 141.011 28.9855 140.87 28.86C140.471 28.539 140.012 28.301 139.52 28.16C138.92 27.97 137.94 27.69 136.59 27.32C134.818 26.9169 133.143 26.1694 131.66 25.12C131.051 24.6537 130.566 24.0452 130.247 23.3478C129.928 22.6505 129.785 21.8855 129.83 21.12C129.8 19.9782 130.152 18.8591 130.83 17.94C131.533 17.0211 132.469 16.3065 133.54 15.87C134.7 15.3753 135.949 15.1268 137.21 15.14C138.896 15.1 140.562 15.5071 142.04 16.32C143.413 17.0933 144.535 18.2459 145.27 19.64L141 21.77C140.647 21.0518 140.108 20.4408 139.44 20C138.769 19.6038 137.999 19.4062 137.22 19.43C136.517 19.4145 135.823 19.5983 135.22 19.96C134.983 20.0729 134.781 20.2477 134.635 20.466C134.489 20.6842 134.404 20.9378 134.39 21.2C134.374 21.3804 134.395 21.5621 134.452 21.7341C134.509 21.906 134.6 22.0646 134.72 22.2C135.005 22.4693 135.347 22.6709 135.72 22.79C136.19 22.96 136.96 23.19 138.04 23.48L138.62 23.62C139.903 23.975 141.159 24.4194 142.38 24.95C143.361 25.3947 144.229 26.0543 144.92 26.88C145.613 27.7801 145.967 28.8952 145.92 30.03C145.94 31.2061 145.563 32.3546 144.85 33.29C144.087 34.2666 143.075 35.0197 141.92 35.47C140.332 36.0626 138.637 36.318 136.945 36.2198C135.253 36.1217 133.599 35.6722 132.09 34.9V34.85Z" fill="#181D26"/>
<path d="M165.84 35.78H160.39L154.48 28.15L152.53 30.5V35.78H148.18V15.51H152.53V23.69L159.46 15.51H165L157.29 24.76L165.84 35.78Z" fill="#181D26"/>
<path d="M168.08 35.81V15.51H172.46V35.81H168.08Z" fill="#181D26"/>
</g>
<defs>
<clipPath id="clip0_19_4">
<rect width="172.46" height="36.4" fill="white"/>
</clipPath>
</defs>
</svg>
